<svg width="75" height="43" viewBox="0 0 75 43" fill="none" xmlns="http://www.w3.org/2000/svg">
<path fill-rule="evenodd" clip-rule="evenodd" d="M36.9982 40.4314C36.2477 38.4161 35.5021 36.4141 34.7454 34.3874C34.6002 33.9994 34.4551 33.6123 34.3103 33.2258C33.6626 31.4971 33.02 29.7822 32.3894 28.0629C32.2806 27.7661 32.1153 27.5866 31.8306 27.4581C30.7436 26.9675 29.8184 26.2494 29.0463 25.3465C27.7367 23.8149 27.1028 22.0101 26.9696 20.0173C26.8751 18.6034 27.0791 17.2344 27.6322 15.9245C27.691 15.7853 27.6896 15.666 27.6364 15.5246C27.1339 14.1889 26.6351 12.8519 26.1363 11.5149C25.9979 11.144 25.8596 10.773 25.7211 10.4022L25.3123 9.30692C24.2141 6.36506 23.1159 3.42319 22.0171 0.481561C21.9757 0.370776 21.9309 0.261256 21.8885 0.15735C21.8694 0.110727 21.8508 0.0652332 21.8332 0.0212628H16.3615C16.3509 0.0442784 16.3409 0.0652683 16.3314 0.0850072C16.3128 0.123911 16.2966 0.157955 16.2831 0.193072C16.0579 0.779921 15.833 1.36688 15.6081 1.95384C15.3095 2.7331 15.011 3.51235 14.7117 4.29135C14.1738 5.69159 13.6355 7.09166 13.0972 8.49173C12.0687 11.1666 11.0402 13.8414 10.0147 16.5175C9.34302 18.2703 8.67415 20.0243 8.00528 21.7783C7.35441 23.485 6.70354 25.1918 6.05006 26.8976C4.91454 29.8615 3.77706 32.8248 2.63957 35.788C1.84627 37.8547 1.05296 39.9213 0.260321 41.9882C0.14145 42.2981 0.0313698 42.6121 0 42.9654H6.55725L9.8795 33.8822H28.0949L31.3153 42.9573H42.7347L46.0535 33.8778H64.2632C64.2755 33.9078 64.288 33.9367 64.3001 33.9651C64.3256 34.0245 64.35 34.0814 64.3706 34.1396C64.5514 34.6519 64.7318 35.1643 64.9122 35.6768C65.129 36.2924 65.3457 36.9081 65.5633 37.5235C66.1708 39.2419 66.7793 40.9601 67.3891 42.6777C67.4961 42.9793 67.5003 42.9793 67.8017 42.9794H67.8024C69.2683 42.9803 70.7343 42.9808 72.2002 42.9813L73.5968 42.9818L74.1037 42.9819L58.0079 0.00231538C57.6223 0.00231538 57.2383 0.002382 56.8557 0.0024484C55.4724 0.00268842 54.106 0.00292552 52.7396 1.5547e-06C52.5749 -0.000350001 52.4975 0.0588805 52.4388 0.217516C52.2394 0.756243 52.0322 1.29207 51.8249 1.8279C51.7306 2.07187 51.6362 2.31584 51.5426 2.56009C51.3755 2.99596 51.2084 3.43181 51.0413 3.86767C50.0155 6.5434 48.9896 9.21913 47.97 11.8972C47.8935 12.0981 47.8514 12.3238 47.8482 12.5388C47.8404 13.0518 47.8395 13.565 47.8385 14.0781C47.8375 14.6354 47.8365 15.1928 47.8267 15.75C47.8097 16.7282 47.7081 17.6999 47.496 18.6567C47.2871 19.5989 46.9981 20.516 46.5864 21.411L49.2716 24.9894C49.2835 24.9675 49.2938 24.9499 49.3025 24.9348C49.3178 24.9084 49.3286 24.8899 49.3358 24.87C49.5718 24.2186 49.8074 23.567 50.043 22.9154C50.4272 21.8528 50.8115 20.7901 51.1974 19.7281C52.4547 16.2684 53.7138 12.8094 54.9745 9.35093C55.0316 9.19446 55.0977 9.04131 55.1675 8.87978C55.2011 8.80189 55.2356 8.72206 55.2703 8.63897C56.3582 11.7188 57.452 14.7851 58.5453 17.8504C59.7825 21.3186 61.0191 24.7854 62.2462 28.2688H41.7416C41.5903 28.6597 41.4395 29.0482 41.2894 29.4351C40.9608 30.2816 40.6352 31.1206 40.3131 31.9609C39.8767 33.0992 39.4412 34.2378 39.0056 35.3764C38.4083 36.9379 37.8111 38.4993 37.2117 40.0599C37.2012 40.087 37.1921 40.1154 37.1828 40.1441C37.1475 40.2534 37.1108 40.367 36.9982 40.4314ZM26.1076 28.2536H18.4186L11.9536 28.2536C12.3731 27.0184 12.8201 25.8043 13.2662 24.5927C13.4196 24.1758 13.573 23.7593 13.7251 23.3423C14.1357 22.2165 14.5435 21.0898 14.9514 19.963C15.1363 19.4522 15.3212 18.9414 15.5063 18.4307C15.6849 17.9381 15.8626 17.4452 16.0403 16.9522C16.4492 15.8179 16.8581 14.6835 17.278 13.5532C17.5013 12.952 17.7172 12.3481 17.9339 11.7419C18.304 10.7067 18.6764 9.66499 19.0919 8.62002L26.1076 28.2536ZM31.4539 15.5949C30.7144 16.4384 30.224 17.3927 30.0956 18.5499C30.0889 18.5883 30.0815 18.6221 30.0748 18.653C30.0642 18.7019 30.0551 18.7437 30.0524 18.786C29.9854 19.8186 30.0898 20.8258 30.492 21.7909C31.1254 23.3107 32.1977 24.3851 33.7573 24.9237C35.4317 25.5019 37.1166 25.4465 38.7858 24.8744C39.5566 24.6102 40.2566 24.2072 40.9194 23.7098C41.0027 23.8195 41.0863 23.9273 41.1694 24.0344C41.3684 24.2911 41.5641 24.5436 41.7448 24.8064C41.8741 24.9946 42.0194 25.0501 42.2381 25.0475C42.9216 25.0394 43.6051 25.0393 44.2887 25.0392C44.5822 25.0391 44.8757 25.039 45.1691 25.0384C45.2169 25.0383 45.2647 25.0344 45.3246 25.0296C45.3566 25.0271 45.392 25.0243 45.4327 25.0216L42.8984 21.6182C44.2375 19.6964 44.7781 17.5508 44.7435 15.2193H42.1055C42.0703 16.6481 41.8471 18.0127 41.188 19.3124C41.1587 19.2754 41.1305 19.2404 41.1032 19.2065C41.0473 19.1371 40.9953 19.0724 40.9454 19.0061C40.5606 18.494 40.1757 17.982 39.7908 17.4699C38.5692 15.845 37.3477 14.22 36.13 12.5922C35.5792 11.856 35.0558 11.0983 34.7652 10.2147C34.4542 9.26935 34.4812 8.33754 34.971 7.44861C35.1679 7.0912 35.447 6.80962 35.8495 6.69861C36.5807 6.49701 37.2537 6.59474 37.8232 7.13897C37.8661 7.17995 37.9112 7.21856 37.9623 7.26222C37.9879 7.28414 38.015 7.30733 38.0441 7.33273L39.9983 5.47432C39.4602 4.90223 38.8709 4.4933 38.1759 4.26433C36.906 3.84593 35.6274 3.86218 34.3832 4.34752C33.2566 4.78698 32.4697 5.59344 32.0385 6.73681C31.8441 7.25217 31.7338 7.78399 31.6736 8.32832C31.5427 9.51245 31.7066 10.6513 32.2622 11.7106C32.5103 12.1834 32.7816 12.644 33.057 13.1115C33.1815 13.323 33.3069 13.5358 33.4313 13.7518C33.4357 13.7444 33.4242 13.7806 33.3998 13.8025C33.357 13.8408 33.3113 13.8758 33.2655 13.9108C33.2468 13.9252 33.2281 13.9395 33.2095 13.9541C32.5776 14.451 31.9852 14.9888 31.4539 15.5949ZM35.063 15.8617L38.3383 20.2216C38.6774 20.6813 38.9901 21.0991 39.313 21.5307L39.3139 21.5318C39.3031 21.5457 39.2931 21.5607 39.2831 21.5756C39.2618 21.6074 39.2407 21.639 39.2118 21.6597C38.2069 22.3754 37.1096 22.7755 35.8533 22.6806C34.2825 22.562 33.3753 21.6839 33.0499 20.1842C32.764 18.8669 33.1707 17.7277 34.0864 16.765C34.2862 16.5549 34.5038 16.3617 34.7324 16.1587C34.8403 16.0628 34.9508 15.9647 35.063 15.8617Z" fill="#2673A3"/>
</svg>
