<svg xmlns="http://www.w3.org/2000/svg" viewBox="0 0 208.22 87.52"><defs><style>.cls-1{fill:#93c83d;}.cls-1,.cls-2,.cls-3,.cls-4,.cls-5,.cls-7{fill-rule:evenodd;}.cls-2,.cls-6{fill:#99ca3b;}.cls-3,.cls-7{fill:#1a4b8b;}.cls-4{fill:#76aecf;}.cls-5{fill:#77afd0;}.cls-7{stroke:#12498a;stroke-miterlimit:10;stroke-width:0.75px;}</style></defs><g id="Layer_2" data-name="Layer 2"><g id="Layer_1-2" data-name="Layer 1"><g id="Full_Logo" data-name="Full Logo"><path class="cls-1" d="M57.42,9.57a10.9,10.9,0,1,0,14.88-4A10.9,10.9,0,0,0,57.42,9.57Z"/><path class="cls-2" d="M49.91,84.24a2,2,0,1,0,2.71-.72A2,2,0,0,0,49.91,84.24Z"/><path class="cls-3" d="M30.93,82.93a3.06,3.06,0,1,0,4.18-1.12A3.07,3.07,0,0,0,30.93,82.93Z"/><path class="cls-4" d="M11.28,71.88a4,4,0,1,0,5.48-1.47A4,4,0,0,0,11.28,71.88Z"/><path class="cls-2" d="M.71,50.83a5.27,5.27,0,1,0,7.2-1.93A5.27,5.27,0,0,0,.71,50.83Z"/><path class="cls-3" d="M4.58,23.53a6.77,6.77,0,1,0,9.26-2.48A6.77,6.77,0,0,0,4.58,23.53Z"/><path class="cls-4" d="M28,4.13a8.25,8.25,0,1,0,11.27-3A8.26,8.26,0,0,0,28,4.13Z"/><path class="cls-5" d="M65.62,77.59a1.42,1.42,0,1,0,1.94-.52A1.43,1.43,0,0,0,65.62,77.59Z"/><path class="cls-2" d="M30.74,59.88H25.12V72.42h5.8c2.79,0,4.63-1.2,4.63-3.46,0-1.72-1-2.56-2.49-3.06a3,3,0,0,0,1.8-2.81c0-2-1.6-3.21-4.12-3.21Zm-.45,5.29h-3V61.84h3.17c1.42,0,2.2.59,2.2,1.61s-.95,1.72-2.36,1.72Zm.64,5.3H27.28V67h3.49c1.74,0,2.58.62,2.58,1.7S32.44,70.47,30.93,70.47Z"/><path class="cls-2" d="M48.57,59.88h-2.2V67.1c0,2.31-1.2,3.49-3.15,3.49S40.05,69.34,40.05,67V59.88h-2.2V67.1c0,3.63,2.07,5.51,5.33,5.51s5.39-1.88,5.39-5.62Z"/><path class="cls-2" d="M53.46,63.16c0-.84.75-1.5,2-1.5A5.65,5.65,0,0,1,58.9,63l1.18-1.67a7,7,0,0,0-4.55-1.58c-2.48,0-4.27,1.47-4.27,3.66s1.5,3.11,4.17,3.76c2.32.53,2.83,1,2.83,1.93S57.4,70.64,56,70.64a5.8,5.8,0,0,1-4-1.62l-1.33,1.57a7.77,7.77,0,0,0,5.23,2c2.63,0,4.48-1.4,4.48-3.76,0-2.1-1.38-3-4-3.69C54,64.57,53.46,64.15,53.46,63.16Z"/><rect class="cls-6" x="63.18" y="59.88" width="2.2" height="12.53"/><polygon class="cls-2" points="77.48 68.55 70.77 59.88 68.73 59.88 68.73 72.42 70.89 72.42 70.89 63.5 77.81 72.42 79.65 72.42 79.65 59.88 77.48 59.88 77.48 68.55"/><polygon class="cls-2" points="92.17 59.88 82.87 59.88 82.87 72.42 92.25 72.42 92.25 70.45 85.08 70.45 85.08 67.08 91.36 67.08 91.36 65.11 85.08 65.11 85.08 61.85 92.17 61.85 92.17 59.88"/><path class="cls-2" d="M96.73,63.16c0-.84.75-1.5,2-1.5a5.61,5.61,0,0,1,3.4,1.29l1.18-1.67a6.94,6.94,0,0,0-4.54-1.58c-2.49,0-4.28,1.47-4.28,3.66s1.5,3.11,4.17,3.76c2.33.53,2.83,1,2.83,1.93s-.86,1.59-2.22,1.59a5.8,5.8,0,0,1-4-1.62L94,70.59a7.72,7.72,0,0,0,5.22,2c2.64,0,4.48-1.4,4.48-3.76,0-2.1-1.38-3-4-3.69C97.3,64.57,96.73,64.15,96.73,63.16Z"/><path class="cls-2" d="M108,63.16c0-.84.75-1.5,2-1.5a5.63,5.63,0,0,1,3.4,1.29l1.18-1.67a6.94,6.94,0,0,0-4.54-1.58c-2.49,0-4.28,1.47-4.28,3.66s1.5,3.11,4.17,3.76c2.33.53,2.83,1,2.83,1.93s-.86,1.59-2.22,1.59a5.8,5.8,0,0,1-4-1.62l-1.32,1.57a7.72,7.72,0,0,0,5.22,2c2.64,0,4.48-1.4,4.48-3.76,0-2.1-1.38-3-4-3.69C108.58,64.57,108,64.15,108,63.16Z"/><path class="cls-4" d="M131.9,70.41,130.48,69a4.92,4.92,0,0,1-3.6,1.63,4.47,4.47,0,0,1,0-8.92,5,5,0,0,1,3.51,1.56l1.42-1.63a6.53,6.53,0,0,0-4.91-1.95,6.48,6.48,0,0,0-.09,13A6.48,6.48,0,0,0,131.9,70.41Z"/><polygon class="cls-4" points="143.5 59.88 134.21 59.88 134.21 72.42 143.59 72.42 143.59 70.45 136.41 70.45 136.41 67.08 142.69 67.08 142.69 65.11 136.41 65.11 136.41 61.85 143.5 61.85 143.5 59.88"/><polygon class="cls-4" points="154.96 68.55 148.24 59.88 146.2 59.88 146.2 72.42 148.37 72.42 148.37 63.5 155.28 72.42 157.12 72.42 157.12 59.88 154.96 59.88 154.96 68.55"/><polygon class="cls-4" points="165.65 61.92 169.62 61.92 169.62 59.88 159.45 59.88 159.45 61.92 163.43 61.92 163.43 72.42 165.65 72.42 165.65 61.92"/><path class="cls-4" d="M182.58,72.42l-3.38-4.75a3.75,3.75,0,0,0,3-3.81c0-2.45-1.77-4-4.66-4H172V72.42h2.2V68.05h2.76L180,72.42ZM180,64c0,1.29-1,2.12-2.58,2.12h-3.22V61.89h3.2C179,61.89,180,62.61,180,64Z"/><path class="cls-4" d="M191.37,59.79h-2l-5.51,12.63h2.25l1.29-3h5.93l1.27,3h2.33l-5.52-12.63Zm1.11,7.65h-4.31l2.15-5Z"/><polygon class="cls-4" points="199.03 72.42 207.83 72.42 207.83 70.41 201.24 70.41 201.24 59.88 199.03 59.88 199.03 72.42"/><path class="cls-7" d="M203.66,41.45c0,4.45-3.15,8-7.66,8a7.79,7.79,0,0,1-7.72-8.11c0-4.44,3.15-8,7.66-8a7.78,7.78,0,0,1,7.72,8.1Zm4.18-.06a11.87,11.87,0,0,0-23.74.06,11.87,11.87,0,0,0,23.74-.06Z"/><polygon class="cls-7" points="170.04 30.07 170.04 52.78 174.03 52.78 174.03 30.07 170.04 30.07 170.04 30.07"/><path class="cls-7" d="M35,29.68A11.75,11.75,0,1,0,35,53.17,11.75,11.75,0,1,0,35,29.68ZM35,49.5a7.79,7.79,0,0,1-7.72-8.11c0-4.44,3.15-8,7.66-8a7.78,7.78,0,0,1,7.72,8.1C42.68,45.9,39.53,49.5,35,49.5Z"/><path class="cls-7" d="M154.48,44.18a6.81,6.81,0,0,0,5.42-6.91c0-4.44-3.21-7.2-8.43-7.2H141.35V52.78h4V44.86h5l5.58,7.92h4.7Zm-9.14-2.85V33.7h5.8c3,0,4.71,1.3,4.71,3.8,0,2.33-1.82,3.83-4.68,3.83Z"/><path class="cls-7" d="M122.45,29.91h-3.7l-10,22.87h4.09l2.33-5.49h10.74l2.3,5.49h4.22Zm-5.81,13.85,3.9-9.08,3.92,9.08Z"/><polygon class="cls-7" points="97.2 33.77 104.4 33.77 104.4 30.07 85.97 30.07 85.97 33.77 93.18 33.77 93.18 52.78 97.2 52.78 97.2 33.77 97.2 33.77"/><polygon class="cls-7" points="72.82 45.77 60.66 30.07 56.96 30.07 56.96 52.78 60.88 52.78 60.88 36.62 73.41 52.78 76.75 52.78 76.75 30.07 72.82 30.07 72.82 45.77"/></g></g></g></svg>